<?xml version="1.0" standalone="no"?>
<!DOCTYPE svg PUBLIC "-//W3C//DTD SVG 20010904//EN"
 "http://www.w3.org/TR/2001/REC-SVG-20010904/DTD/svg10.dtd">
<svg version="1.0" xmlns="http://www.w3.org/2000/svg"
 width="355.000000pt" height="355.000000pt" viewBox="0 0 355.000000 355.000000"
 preserveAspectRatio="xMidYMid meet">
<metadata>
Created by potrace 1.14, written by Peter Selinger 2001-2017
</metadata>
<g transform="translate(0.000000,355.000000) scale(0.100000,-0.100000)"
fill="#000000" stroke="none">
<path d="M1128 3245 c-155 -38 -238 -114 -345 -315 -39 -74 -70 -136 -69 -137
2 -2 18 5 37 14 31 16 82 18 518 23 l484 5 18 32 c49 88 66 221 35 280 -21 43
-79 90 -123 102 -57 16 -485 13 -555 -4z"/>
<path d="M2018 3243 c-93 -2 -168 -5 -168 -7 0 -7 221 -390 233 -404 9 -12 59
-13 278 -7 262 7 337 1 452 -31 9 -3 17 -1 17 4 0 20 -163 299 -193 330 -17
18 -56 44 -86 59 -71 33 -219 63 -301 61 -36 -2 -140 -4 -232 -5z"/>
<path d="M1876 2898 c-108 -189 -775 -1374 -795 -1413 -29 -60 -39 -165 -22
-245 17 -80 70 -197 137 -296 l58 -88 13 68 c8 37 24 91 37 119 18 41 399 717
697 1237 97 170 104 303 24 476 -38 83 -101 184 -114 184 -6 0 -21 -19 -35
-42z"/>
<path d="M2149 2751 c-14 -5 3 -41 100 -209 l116 -204 275 6 c253 6 283 5 374
-14 55 -11 100 -19 101 -18 6 7 -168 305 -191 329 -38 40 -109 75 -199 98 -71
19 -106 21 -320 20 -132 -1 -247 -4 -256 -8z"/>
<path d="M810 2734 c-30 -8 -73 -26 -96 -39 -87 -51 -235 -240 -289 -368 l-15
-35 55 19 c73 25 113 27 595 29 l415 1 112 199 111 200 -296 1 c-164 0 -351 2
-417 4 -82 2 -138 -2 -175 -11z"/>
<path d="M2149 2437 c-9 -31 -156 -301 -371 -677 -400 -703 -410 -722 -433
-811 -22 -84 -16 -203 15 -282 33 -86 121 -176 222 -227 95 -48 118 -52 95
-17 -40 61 -57 176 -37 249 6 20 158 295 337 610 180 315 337 598 349 628 49
119 40 228 -32 380 -38 80 -112 200 -124 200 -3 0 -13 -24 -21 -53z"/>
<path d="M518 2243 c-36 -42 -35 -44 208 -472 130 -229 240 -420 244 -424 4
-5 8 16 9 46 1 87 57 211 156 346 28 38 44 69 40 78 -3 9 -64 112 -136 229
l-131 214 -188 0 c-166 0 -189 -2 -202 -17z"/>
<path d="M2415 2233 c30 -120 25 -231 -15 -348 l-18 -53 124 -228 c68 -125
129 -231 136 -235 6 -4 75 -8 152 -8 203 -2 279 25 262 93 -3 13 -104 198
-224 412 l-219 389 -102 3 -103 3 7 -28z"/>
<path d="M2690 2257 c0 -15 442 -784 455 -792 13 -8 27 1 70 47 206 220 144
585 -123 711 -66 31 -70 32 -234 35 -93 2 -168 1 -168 -1z"/>
<path d="M309 2103 c-83 -79 -123 -162 -128 -264 -2 -48 2 -96 11 -126 13 -43
558 -998 645 -1130 45 -67 138 -154 200 -184 45 -23 61 -24 252 -27 l204 -3
-51 48 c-41 40 -133 192 -532 878 -266 457 -490 838 -498 848 -24 27 -39 21
-103 -40z"/>
<path d="M3055 1310 c-45 -16 -100 -18 -510 -21 -253 -2 -467 -6 -476 -11 -14
-6 -229 -375 -229 -392 0 -4 201 -5 448 -4 l447 3 55 29 c70 37 170 133 225
216 39 59 105 182 105 195 0 7 -7 5 -65 -15z"/>
<path d="M2785 819 c-37 -17 -70 -18 -521 -19 l-481 0 -34 -72 c-30 -64 -34
-83 -34 -154 0 -71 3 -85 27 -121 16 -25 44 -49 72 -63 44 -21 54 -22 323 -18
l278 3 75 37 c103 50 166 116 242 253 33 61 69 125 80 143 11 17 18 32 16 31
-2 0 -21 -9 -43 -20z"/>
</g>
</svg>
